<?xml version="1.0" standalone="no"?>
<!DOCTYPE svg PUBLIC "-//W3C//DTD SVG 20010904//EN"
 "http://www.w3.org/TR/2001/REC-SVG-20010904/DTD/svg10.dtd">
<svg version="1.0" xmlns="http://www.w3.org/2000/svg"
 width="250.000000pt" height="198.000000pt" viewBox="0 0 250.000000 198.000000"
 preserveAspectRatio="xMidYMid meet">

<g transform="translate(0.000000,198.000000) scale(0.100000,-0.100000)"
fill="#000000" stroke="none">
<path d="M950 1910 c-247 -67 -433 -241 -516 -485 -24 -70 -28 -96 -28 -210
-1 -71 2 -142 7 -157 8 -31 -5 -37 -29 -13 -9 8 -21 15 -27 15 -7 0 -1 -9 13
-20 14 -10 23 -20 20 -22 -3 -2 -25 -19 -49 -37 -26 -20 -58 -36 -75 -37 -45
-2 -45 -2 -39 -24 4 -16 2 -19 -11 -14 -10 4 -16 1 -16 -7 0 -24 -16 -40 -33
-33 -9 3 -17 14 -17 24 0 25 -16 33 -40 20 -21 -11 -28 -40 -10 -40 6 0 10 -9
10 -19 0 -14 5 -18 20 -14 11 3 20 0 20 -6 0 -6 9 -11 21 -11 34 0 16 -24 -27
-36 -26 -7 -45 -8 -58 -2 -22 12 -41 -3 -33 -25 7 -19 74 -32 91 -17 10 8 17
4 30 -14 20 -32 20 -43 -1 -55 -25 -14 -9 -25 16 -11 15 8 27 8 41 0 23 -13
27 -45 5 -54 -8 -3 -15 -15 -15 -26 0 -15 7 -20 29 -20 28 0 28 -1 24 -44 -5
-38 -2 -46 17 -56 12 -6 24 -9 28 -6 3 3 13 0 21 -8 25 -23 43 -6 27 25 -17
32 -9 83 15 105 25 23 30 16 19 -31 -11 -47 -7 -55 26 -55 20 0 24 -4 19 -19
-4 -13 0 -20 16 -24 27 -7 46 0 51 21 3 10 25 23 53 31 46 13 49 13 64 -7 9
-12 24 -32 34 -44 17 -22 17 -22 7 -1 -14 31 -13 38 7 22 14 -12 16 -12 11 1
-2 8 -13 15 -23 15 -10 0 -20 6 -23 13 -2 6 2 12 9 12 10 0 10 3 1 12 -14 14
-16 28 -3 28 5 0 12 -8 15 -18 4 -11 17 -25 31 -32 22 -12 27 -11 50 14 l25
27 22 -21 c16 -15 24 -17 30 -8 9 14 12 1 8 -39 -1 -17 4 -23 19 -23 23 0 27
20 11 51 -9 16 -7 19 9 19 10 0 21 -6 24 -13 3 -9 46 -18 126 -26 226 -26 403
21 562 149 57 46 64 49 80 34 25 -22 58 0 65 46 6 34 40 88 50 78 2 -3 1 -24
-5 -47 -10 -45 -9 -45 32 -55 23 -5 26 -10 18 -20 -9 -10 -8 -15 5 -20 32 -12
54 -7 54 14 0 12 7 20 18 20 10 0 27 7 39 15 30 21 63 6 87 -39 11 -20 21 -35
23 -33 2 2 -5 19 -14 38 -18 34 -25 79 -13 79 4 0 16 -11 28 -25 12 -14 26
-25 31 -25 20 0 57 26 53 38 -6 19 9 14 35 -10 13 -12 23 -16 23 -9 0 7 4 9
10 6 5 -3 9 -21 7 -38 -1 -23 2 -32 13 -32 15 0 16 12 4 73 -5 28 -4 32 15 32
15 0 23 -9 29 -32 4 -18 11 -32 15 -30 4 1 14 2 22 2 10 0 15 10 15 30 0 17
-5 30 -10 30 -16 0 -54 39 -46 47 12 12 89 3 115 -14 15 -10 26 -12 33 -5 15
15 1 32 -25 32 -32 0 -101 26 -105 39 -11 33 59 56 86 29 23 -23 26 4 4 42
-17 30 -18 38 -7 34 8 -4 15 -10 15 -15 0 -16 58 -10 64 7 18 47 -6 75 -60 71
-28 -2 -29 0 -27 36 2 25 -2 37 -11 37 -7 0 -26 11 -41 24 -16 14 -33 22 -38
19 -6 -4 -8 6 -4 26 5 25 2 35 -17 52 -13 11 -23 28 -21 37 1 9 0 12 -2 6 -2
-6 -23 -14 -46 -17 -23 -3 -52 -9 -64 -13 -21 -6 -23 -3 -23 25 l0 32 -52 -3
c-48 -3 -53 -1 -56 19 -3 17 -8 21 -30 17 -39 -7 -47 -20 -27 -41 18 -17 18
-18 1 -21 -33 -7 -66 8 -70 31 -38 195 -97 317 -206 427 -86 88 -181 147 -295
186 -110 38 -293 44 -405 14z m310 1 c19 -6 55 -15 80 -21 l45 -12 -55 -17
c-30 -10 -74 -27 -97 -39 -38 -20 -44 -21 -77 -7 -65 28 -237 18 -374 -22 -81
-23 -58 -24 33 -2 108 27 289 36 334 18 l33 -14 -61 -48 c-34 -27 -61 -51 -61
-55 0 -3 5 -1 12 6 7 7 22 12 35 12 17 0 21 -4 15 -18 -20 -49 -74 -86 -86
-58 -3 6 -3 -5 0 -24 15 -86 110 -268 184 -353 44 -50 48 -67 10 -47 -27 15
-50 6 -50 -19 0 -19 17 -30 55 -37 36 -7 40 -7 61 -1 15 5 28 -1 47 -21 30
-32 28 -53 -6 -70 -22 -10 -22 -11 4 -11 14 -1 30 4 35 9 7 7 19 8 37 1 31
-12 38 -56 12 -75 -8 -6 -16 -22 -17 -36 -3 -22 1 -25 31 -25 41 0 53 -22 17
-31 -64 -16 -186 28 -288 104 -148 110 -313 336 -368 505 -6 21 -14 36 -17 34
-2 -3 7 -34 21 -69 30 -75 31 -78 11 -78 -20 0 -19 -31 1 -74 20 -42 13 -66
-20 -66 -26 0 -43 27 -26 44 13 13 13 46 -1 46 -5 0 -7 -4 -4 -10 13 -21 -22
-9 -45 15 -29 31 -40 32 -32 3 3 -14 1 -19 -6 -14 -6 4 -19 -2 -29 -14 -10
-11 -21 -20 -25 -20 -13 0 -25 39 -33 105 -3 33 -9 62 -12 65 -7 7 6 -106 19
-160 86 -351 460 -677 718 -624 27 6 50 8 50 4 0 -3 -22 -33 -48 -65 l-48 -60
-66 -3 c-178 -8 -400 115 -540 299 -127 167 -187 325 -194 514 l-5 120 45 75
c107 180 276 300 477 339 60 12 226 13 269 2z m390 -218 c76 -83 84 -97 69
-121 -14 -22 -82 -38 -87 -22 -5 15 -62 43 -62 30 0 -6 11 -15 24 -19 23 -9
42 -39 31 -49 -3 -3 -11 1 -18 9 -6 8 -23 23 -37 34 l-24 20 26 -36 26 -35
-50 -38 c-28 -20 -57 -35 -64 -32 -8 3 -14 1 -14 -4 0 -18 -20 -10 -21 8 -1
15 -2 16 -6 0 -3 -11 -10 -15 -20 -11 -13 5 -15 1 -9 -20 3 -14 2 -29 -4 -32
-5 -3 -10 -1 -10 4 0 6 -4 11 -10 11 -5 0 -10 -9 -10 -19 0 -11 -5 -23 -10
-26 -6 -4 -8 -11 -5 -16 9 -13 -19 -11 -37 4 -9 6 -18 21 -20 32 -4 27 -30 30
-59 6 -23 -18 -23 -20 -6 -38 9 -11 17 -26 17 -35 0 -11 7 -14 25 -10 15 2 25
0 25 -7 0 -6 8 -11 18 -11 26 -1 -5 -16 -48 -24 -33 -5 -37 -3 -77 52 -24 31
-43 64 -43 73 0 20 82 137 145 207 81 90 207 169 271 171 14 1 40 -19 74 -56z
m-1199 -366 c-6 -6 -11 -27 -12 -46 l-1 -36 -9 35 c-9 37 -5 72 14 130 l12 35
3 -54 c2 -30 -2 -59 -7 -64z m423 -3 c9 -24 7 -28 -9 -14 -17 14 -20 30 -6 30
5 0 12 -7 15 -16z m812 -130 c9 -50 -4 -167 -28 -249 -39 -132 -130 -284 -217
-362 -38 -34 -120 -72 -171 -79 l-45 -6 43 43 c139 135 245 355 241 495 l-2
65 53 47 c56 50 100 82 112 82 4 0 10 -16 14 -36z m149 -364 c4 -6 -4 -19 -17
-29 -21 -17 -24 -18 -32 -4 -14 25 34 57 49 33z m350 -70 c3 -5 -1 -10 -9 -10
-9 0 -16 5 -16 10 0 6 4 10 9 10 6 0 13 -4 16 -10z m-1715 -134 c0 -15 -48
-37 -56 -24 -9 14 25 48 42 41 8 -3 14 -10 14 -17z"/>
<path d="M803 1636 c-89 -33 -167 -82 -234 -148 -55 -54 -96 -114 -85 -125 2
-3 12 9 21 27 23 45 111 132 176 173 67 43 116 64 189 82 40 10 47 13 25 14
-16 0 -58 -10 -92 -23z"/>
<path d="M998 1653 c6 -2 18 -2 25 0 6 3 1 5 -13 5 -14 0 -19 -2 -12 -5z"/>
<path d="M340 1036 c0 -2 7 -9 15 -16 9 -7 15 -8 15 -2 0 5 -7 12 -15 16 -8 3
-15 4 -15 2z"/>
<path d="M1731 668 c0 -10 -6 -18 -12 -18 -5 0 -7 -5 -3 -11 10 -16 27 5 21
27 -4 17 -5 17 -6 2z"/>
<path d="M2040 671 c0 -6 5 -13 10 -16 6 -3 10 1 10 9 0 9 -4 16 -10 16 -5 0
-10 -4 -10 -9z"/>
</g>
</svg>
